<?xml version="1.0" encoding="utf-8"?>
<!-- Generator: Adobe Illustrator 19.0.0, SVG Export Plug-In . SVG Version: 6.00 Build 0)  -->
<svg version="1.1" id="Portfolio" xmlns="http://www.w3.org/2000/svg" xmlns:xlink="http://www.w3.org/1999/xlink" x="0px" y="0px"
	 viewBox="0 0 256 256" style="enable-background:new 0 0 256 256;" xml:space="preserve">
<style type="text/css">
	.st0{fill:#DBE8FA;}
	.st1{fill:#002280;}
	.st2{fill:#FFFFFF;}
	.st3{fill:#1067DB;}
	.st4{fill:#002DAA;}
	.st5{fill:#70A4E9;}
	.st6{clip-path:url(#XMLID_3_);fill:#E3EDFE;}
	.st7{clip-path:url(#XMLID_3_);fill:#E5EEFE;}
	.st8{clip-path:url(#XMLID_3_);fill:#E8F0FE;}
	.st9{clip-path:url(#XMLID_3_);fill:#EAF1FE;}
	.st10{clip-path:url(#XMLID_3_);fill:#ECF3FE;}
	.st11{clip-path:url(#XMLID_3_);fill:#EEF4FE;}
	.st12{clip-path:url(#XMLID_3_);fill:#EFF5FE;}
	.st13{clip-path:url(#XMLID_3_);fill:#F1F6FE;}
	.st14{clip-path:url(#XMLID_3_);fill:#F3F7FF;}
	.st15{clip-path:url(#XMLID_3_);fill:#F4F8FF;}
	.st16{clip-path:url(#XMLID_3_);fill:#F5F9FF;}
	.st17{clip-path:url(#XMLID_3_);fill:#F7FAFF;}
	.st18{clip-path:url(#XMLID_3_);fill:#F8FAFF;}
	.st19{clip-path:url(#XMLID_3_);fill:#F9FBFF;}
	.st20{clip-path:url(#XMLID_3_);fill:#FAFCFF;}
	.st21{clip-path:url(#XMLID_3_);fill:#FBFCFF;}
	.st22{clip-path:url(#XMLID_3_);fill:#FBFDFF;}
	.st23{clip-path:url(#XMLID_3_);fill:#FCFDFF;}
	.st24{clip-path:url(#XMLID_3_);fill:#FDFEFF;}
	.st25{clip-path:url(#XMLID_3_);fill:#FEFEFF;}
	.st26{clip-path:url(#XMLID_3_);fill:#FEFFFF;}
	.st27{clip-path:url(#XMLID_3_);fill:#FFFFFF;}
	.st28{fill:#CFE1F8;}
	.st29{fill:#EEF4FC;}
	.st30{fill:#D1E1FC;}
	.st31{fill:#FFBCA7;}
	.st32{fill:#9FC2F1;}
	.st33{fill:#E1EBFD;}
	.st34{fill:#E3EDFE;}
	.st35{fill:#B3CDFA;}
	.st36{opacity:0.2;}
	.st37{fill:#001755;}
	.st38{fill:#FF5722;}
	.st39{opacity:0.4;}
	.st40{fill:#A8D9FB;}
	.st41{opacity:0.55;}
	.st42{opacity:0.3;}
	.st43{fill:#191C3C;}
	.st44{opacity:0.5;}
	.st45{fill:#BF411A;}
	.st46{fill:#4085E2;}
</style>
<g id="XMLID_154_">
	<g id="XMLID_873_">
		<path id="XMLID_160_" class="st0" d="M219.9,120.6c0-11.8-4.1-23.6-11.5-32.7c-4.3-5.3-10.2-9.9-17-9.8
			c-5.6,0.1-10.6,3.6-15.9,5.3c-6.7,2.1-14.2,1.5-20.4-1.6c-5.1-2.6-9.3-6.8-14.4-9.5c-7.8-4.1-17.1-4.4-26-3.8
			c-6.6,0.4-13.3,1.3-19.3,4.1c-6,2.8-11.3,7.8-13,14.2c-1.4,5.3-0.3,10.9-1.2,16.3c-1,6.1-4.5,11.6-9.6,15.1
			c-6.5,4.4-15,5.2-21.4,9.9c-8.1,5.9-10.8,17.4-8.1,27.1c2.3,8,7.6,14.1,13.9,19.3c2.4,1.9,4.3,4.8,7.2,6c3.9,1.7,8.3,1.2,12.1,3.3
			c1.8,1,3.1,2.9,5,3.5c1.9,0.6,4.3-0.3,6.2-0.3c8.5,0,17.1,0.1,25.6,0.1c20.3,0.1,40.7,0.2,61,0.2c0,0,0,0,0,0c4,0,9.3,0.8,13-0.2
			c-1.1,0.3,1.1-8.7,1.4-9.6c1.4-3.6,3.8-6.8,6.3-9.7c4.1-4.6,9-8.4,13-13c8-9.1,12.7-21.1,13-33.2
			C219.9,121.3,219.9,121,219.9,120.6z"/>
	</g>
	<g id="XMLID_221_">
		<g id="XMLID_501_">
			<g id="XMLID_540_">
				<path id="XMLID_1123_" class="st1" d="M209.2,185.5l0.6-32.6c0-1-0.8-1.9-1.7-1.9l-8.4,0c-0.6,0-1.2,0.3-1.5,0.9l-2.2,3.6
					l-31.3,0c-1.1,0-2.1,1-2.1,2.1l-0.6,27.8c0,1,0.7,1.7,1.6,1.7l43.9,0C208.5,187.3,209.2,186.5,209.2,185.5z"/>
			</g>
		</g>
		<g id="XMLID_500_">
			<path id="XMLID_162_" class="st2" d="M197.6,185.9h-32.9l5.3-31.7c0.2-1.3,1.4-2.3,2.7-2.3h28.9c0.9,0,1.6,0.8,1.4,1.7
				L197.6,185.9z"/>
		</g>
		<g id="XMLID_1235_">
			<g id="XMLID_227_">
				<path id="XMLID_1122_" class="st3" d="M209.6,185.6l5.3-31.5c0.2-1-0.5-1.8-1.5-1.8H205c-0.6,0-1.2,0.3-1.7,0.8l-2.8,3.5H169
					c-1.1,0-2.2,0.9-2.4,2.1l-4.6,26.9c-0.2,0.9,0.5,1.7,1.4,1.7h44.3C208.6,187.3,209.5,186.5,209.6,185.6z"/>
			</g>
		</g>
	</g>
	<g id="XMLID_1226_">
		<path id="XMLID_161_" class="st3" d="M123.8,121.2l4.2,0c0.9,0,1.7-0.7,1.8-1.6l1-5.4c0.2-0.9-0.4-1.6-1.3-1.6l-3.3,0
			c-0.5,0-1-0.4-1.1-0.9c-0.1-0.3-0.1-0.6-0.2-0.9c-0.1-0.5,0.1-1.1,0.5-1.5l2.8-2.4c0.7-0.6,0.9-1.6,0.4-2.2l-3.1-3.8
			c-0.5-0.6-1.5-0.6-2.2,0l-2.8,2.4c-0.4,0.4-1,0.5-1.5,0.3c-0.3-0.1-0.6-0.3-0.9-0.4c-0.5-0.2-0.7-0.7-0.6-1.2l0.6-3.4
			c0.2-0.9-0.4-1.6-1.3-1.6h-5.4c-0.9,0-1.7,0.7-1.8,1.6L109,102c-0.1,0.5-0.5,1-1.1,1.2c-0.3,0.1-0.7,0.3-1,0.4
			c-0.5,0.2-1.1,0.1-1.4-0.2l-1.9-2.3c-0.5-0.6-1.5-0.6-2.2,0l-4.5,3.8c-0.7,0.6-0.9,1.6-0.4,2.2l1.9,2.4c0.3,0.4,0.3,0.9,0,1.4
			c-0.2,0.3-0.4,0.7-0.6,1c-0.3,0.5-0.8,0.8-1.3,0.8l-3.4,0c-0.9,0-1.7,0.7-1.8,1.6l-1,5.4c-0.2,0.9,0.4,1.6,1.3,1.6l3.3,0
			c0.5,0,1,0.4,1.1,0.9c0.1,0.3,0.1,0.6,0.2,0.9c0.1,0.5,0,1.1-0.5,1.5l-2.8,2.4c-0.7,0.6-0.9,1.6-0.4,2.2l3.1,3.8
			c0.5,0.6,1.5,0.6,2.2,0l2.8-2.4c0.4-0.4,1-0.5,1.5-0.3c0.3,0.1,0.6,0.3,0.9,0.4c0.5,0.2,0.7,0.7,0.6,1.2l-0.6,3.4
			c-0.2,0.9,0.4,1.6,1.3,1.6l5.4,0c0.9,0,1.7-0.7,1.8-1.6l0.6-3.3c0.1-0.5,0.5-1,1.1-1.2c0.3-0.1,0.7-0.2,1-0.4
			c0.5-0.2,1.1-0.1,1.4,0.2l1.9,2.3c0.5,0.6,1.5,0.6,2.2,0l4.5-3.8c0.7-0.6,0.9-1.6,0.4-2.2l-1.9-2.4c-0.3-0.4-0.3-0.9,0-1.4
			C123.2,122.2,123.8,121.2,123.8,121.2z M103.3,115.5c1.8-4.8,7.2-7.5,11.4-5.8c3.1,1.3,4.5,5,3.2,8.5c-1.8,4.8-7.2,7.5-11.4,5.8
			C103.4,122.8,102,119.1,103.3,115.5z"/>
	</g>
	<g id="XMLID_1225_">
		<path id="XMLID_163_" class="st4" d="M109.7,91.3l2.1,0c0.4,0,0.8-0.4,0.9-0.8l0.5-2.7c0.1-0.4-0.2-0.8-0.6-0.8l-1.7,0
			c-0.3,0-0.5-0.2-0.5-0.4c0-0.2-0.1-0.3-0.1-0.5c-0.1-0.3,0-0.5,0.3-0.7l1.4-1.2c0.4-0.3,0.5-0.8,0.2-1.1l-1.6-1.9
			c-0.3-0.3-0.7-0.3-1.1,0l-1.4,1.2c-0.2,0.2-0.5,0.2-0.7,0.1c-0.2-0.1-0.3-0.1-0.5-0.2c-0.2-0.1-0.3-0.3-0.3-0.6l0.3-1.7
			c0.1-0.4-0.2-0.8-0.6-0.8h-2.7c-0.4,0-0.8,0.4-0.9,0.8l-0.3,1.7c-0.1,0.3-0.3,0.5-0.5,0.6c-0.2,0.1-0.3,0.1-0.5,0.2
			c-0.3,0.1-0.6,0.1-0.7-0.1l-1-1.2c-0.3-0.3-0.7-0.3-1.1,0l-2.3,1.9c-0.4,0.3-0.4,0.8-0.2,1.1l1,1.2c0.2,0.2,0.2,0.5,0,0.7
			c-0.1,0.2-0.2,0.4-0.3,0.5C96.5,86.9,96.2,87,96,87l-1.7,0c-0.4,0-0.8,0.4-0.9,0.8l-0.5,2.7c-0.1,0.4,0.2,0.8,0.6,0.8l1.7,0
			c0.3,0,0.5,0.2,0.5,0.4c0,0.2,0.1,0.3,0.1,0.5c0.1,0.3,0,0.5-0.3,0.7l-1.4,1.2c-0.4,0.3-0.5,0.8-0.2,1.1l1.6,1.9
			c0.3,0.3,0.7,0.3,1.1,0l1.4-1.2c0.2-0.2,0.5-0.2,0.7-0.1c0.2,0.1,0.3,0.1,0.5,0.2c0.2,0.1,0.3,0.3,0.3,0.6l-0.3,1.7
			c-0.1,0.4,0.2,0.8,0.6,0.8l2.7,0c0.4,0,0.8-0.4,0.9-0.8l0.3-1.7c0-0.3,0.3-0.5,0.5-0.6c0.2-0.1,0.3-0.1,0.5-0.2
			c0.3-0.1,0.6-0.1,0.7,0.1l1,1.2c0.3,0.3,0.7,0.3,1.1,0l2.3-1.9c0.4-0.3,0.5-0.8,0.2-1.1l-1-1.2c-0.2-0.2-0.2-0.5,0-0.7
			C109.5,91.8,109.7,91.3,109.7,91.3z M99.4,88.4c0.9-2.4,3.6-3.8,5.7-2.9c1.6,0.7,2.3,2.5,1.6,4.3c-0.9,2.4-3.6,3.8-5.7,2.9
			C99.4,92.1,98.7,90.2,99.4,88.4z"/>
	</g>
	<g id="XMLID_220_">
		<g id="XMLID_254_">
			<path id="XMLID_174_" class="st2" d="M43,152.2c0.4-2.6,2.3-4.8,4.5-6.1c2.2-1.4,4.8-2,7.4-2.3c-0.5,2,0.7,3.9,1.4,5.8
				c0.8,2.2,1.1,4.6,0.4,6.8c-0.4,1.3-1.2,2.4-2.2,3.3c-1,0.9-2.2,1.1-3.5,1.6c-0.6,0.2-1.2,0.7-1.9,0.7c-1,0.1-1.8-0.7-2.4-1.5
				c-0.5-0.7-0.8-1.4-1.4-2c-0.5-0.6-1.1-1-1.5-1.7C43,155.3,42.7,153.7,43,152.2z"/>
		</g>
		<g id="XMLID_248_">
			<path id="XMLID_175_" class="st5" d="M36.8,145.2c-0.5-2.6,0.4-5.3,1.9-7.3c1.6-2.1,3.8-3.6,6.1-4.9c0.3,2,2,3.4,3.4,4.9
				c1.5,1.7,2.7,3.9,2.8,6.2c0.1,1.3-0.2,2.7-0.8,3.8c-0.6,1.2-1.7,1.8-2.6,2.7c-0.5,0.5-0.9,1.1-1.5,1.4c-0.9,0.4-2,0.1-2.8-0.5
				c-0.7-0.5-1.3-1-2-1.4c-0.7-0.4-1.4-0.6-2-1C38,148.2,37.1,146.7,36.8,145.2z"/>
		</g>
		<g id="XMLID_244_">
			<path id="XMLID_176_" class="st3" d="M29.9,155.2c0.2-2.1,0.8-4.1,1.2-6.1c0.4-2.1,0.4-4.3,0.2-6.4c2.5,2.7,6.7,2.5,9.9,4.4
				c1.8,1.1,3.2,2.9,3.9,4.9c0.8,2.2,1,4.5,0.1,6.7c0,0.1-0.1,0.2-0.1,0.3c-0.3,0.7-0.5,1.3-0.8,2c-0.1,0.3-0.3,0.7-0.6,0.8
				c-0.1,0.1-0.3,0-0.5,0c-1.1,0-2.1,0.5-3.2,0.8c-1,0.2-2.1,0.2-3.1,0.2c-1.9,0-4-0.4-5.4-1.9C30.2,159.5,29.8,157.2,29.9,155.2z"
				/>
		</g>
		<g id="XMLID_232_">
			<path id="XMLID_796_" class="st4" d="M46.9,187.4c-0.8-6.2-0.6-13,0.6-21.4c0.1-0.6,0.2-1.3,0.3-1.9c0.8-5.8,1.6-11.9,4.6-16.9
				l0.3,0.2c-3,5-3.8,10.9-4.5,16.7c-0.1,0.7-0.2,1.3-0.3,1.9c-1.1,8.4-1.3,15.2-0.6,21.3L46.9,187.4z"/>
		</g>
		<g id="XMLID_231_">
			<path id="XMLID_795_" class="st4" d="M48.5,187.6c-0.7-8.3-1.7-16.8-2.9-25.2c-0.7-4.6-0.6-9.4-0.6-14c0-2.6,0.1-5.3,0-7.9l0.4,0
				c0.1,2.6,0.1,5.3,0,8c-0.1,4.6-0.1,9.4,0.6,14c1.3,8.4,2.2,16.9,2.9,25.3L48.5,187.6z"/>
		</g>
		<g id="XMLID_230_">
			<path id="XMLID_794_" class="st4" d="M49.1,187.5c-0.6-2.5-1.2-5-1.7-7.5c-1.2-4.9-2.3-9.9-3.4-14.9c-1.1-5.7-4.5-11.2-9.3-15.6
				l0.3-0.3c4.9,4.5,8.3,10.1,9.4,15.8c1,5,2.2,10,3.4,14.9c0.6,2.4,1.2,5,1.7,7.5L49.1,187.5z"/>
		</g>
		<g id="XMLID_305_">
			<path id="XMLID_178_" class="st4" d="M45.7,172.2c-0.6-0.3-0.9-1.1-1.2-1.8c-0.6-1.2-1.5-2.1-2.5-3c-0.8-0.7-1.7-1.5-2.7-1.5
				c-0.2,0-0.5,0.1-0.7,0.2c-0.4,0.4-0.3,1.1-0.1,1.6c0.6,1.4,1.8,2.5,3.2,3.3c1.3,0.8,2.8,1.3,4.3,1.8L45.7,172.2z"/>
		</g>
		<g id="XMLID_303_">
			<path id="XMLID_179_" class="st4" d="M46.3,166.6c-0.5-0.2-0.6-0.8-0.9-1.3c-0.4-0.8-1.1-1.5-1.8-2.2c-0.5-0.5-1.2-1.1-1.9-1
				c-0.2,0-0.3,0.1-0.5,0.2c-0.3,0.3-0.2,0.8-0.1,1.2c0.4,1,1.3,1.8,2.3,2.4c1,0.6,2,0.9,3.1,1.3L46.3,166.6z"/>
		</g>
		<g id="XMLID_304_">
			<path id="XMLID_181_" class="st4" d="M53.1,167.3c-0.7-0.8-2-0.8-2.9-0.3c-0.9,0.5-1.6,1.4-2,2.4c-0.4,1-0.7,2-1.2,3l0.5,1.3
				c0.4-0.7,1.2-1,1.9-1.2c1.2-0.4,2.4-0.8,3.3-1.7C53.6,169.8,54,168.2,53.1,167.3z"/>
		</g>
		<g id="XMLID_306_">
			<path id="XMLID_182_" class="st4" d="M51.4,162.5c-0.4-0.5-1.2-0.5-1.8-0.2c-0.6,0.3-1,0.9-1.2,1.5c-0.3,0.6-0.4,1.2-0.7,1.8
				l0.3,0.8c0.2-0.4,0.7-0.6,1.2-0.7c0.7-0.2,1.5-0.5,2-1.1C51.7,164,51.9,163,51.4,162.5z"/>
		</g>
	</g>
	<g id="XMLID_155_">
		<g id="XMLID_164_">
			<g id="XMLID_730_">
				<defs>
					<path id="XMLID_731_" d="M191.5,121.1l-80.1,0.4c-1.2,0-2.3,0.9-2.5,2.1l-9.9,60.6h84.7l9.9-60.5c0.1-0.7-0.2-1.5-0.9-1.8
						L191.5,121.1z"/>
				</defs>
				<clipPath id="XMLID_3_">
					<use xlink:href="#XMLID_731_"  style="overflow:visible;"/>
				</clipPath>
				<rect id="XMLID_732_" x="99.1" y="121.1" class="st6" width="0.4" height="63.2"/>
				<rect id="XMLID_733_" x="99.4" y="121.1" class="st6" width="3.4" height="63.2"/>
				<rect id="XMLID_737_" x="102.8" y="121.1" class="st7" width="3.4" height="63.2"/>
				<rect id="XMLID_739_" x="106.2" y="121.1" class="st8" width="3.4" height="63.2"/>
				<rect id="XMLID_740_" x="109.5" y="121.1" class="st9" width="3.4" height="63.2"/>
				<rect id="XMLID_741_" x="112.9" y="121.1" class="st10" width="3.4" height="63.2"/>
				<rect id="XMLID_751_" x="116.3" y="121.1" class="st11" width="3.4" height="63.2"/>
				<rect id="XMLID_755_" x="119.6" y="121.1" class="st12" width="3.4" height="63.2"/>
				<rect id="XMLID_756_" x="123" y="121.1" class="st13" width="3.4" height="63.2"/>
				<rect id="XMLID_760_" x="126.4" y="121.1" class="st14" width="3.4" height="63.2"/>
				<rect id="XMLID_761_" x="129.7" y="121.1" class="st15" width="3.4" height="63.2"/>
				<rect id="XMLID_764_" x="133.1" y="121.1" class="st16" width="3.4" height="63.2"/>
				<rect id="XMLID_765_" x="136.5" y="121.1" class="st17" width="3.4" height="63.2"/>
				<rect id="XMLID_766_" x="139.8" y="121.1" class="st18" width="3.4" height="63.2"/>
				<rect id="XMLID_767_" x="143.2" y="121.1" class="st19" width="3.4" height="63.2"/>
				<rect id="XMLID_768_" x="146.5" y="121.1" class="st20" width="3.4" height="63.2"/>
				<rect id="XMLID_770_" x="149.9" y="121.1" class="st21" width="3.4" height="63.2"/>
				<rect id="XMLID_778_" x="153.3" y="121.1" class="st22" width="3.4" height="63.2"/>
				<rect id="XMLID_779_" x="156.6" y="121.1" class="st23" width="3.4" height="63.2"/>
				<rect id="XMLID_780_" x="160" y="121.1" class="st24" width="3.4" height="63.2"/>
				<rect id="XMLID_781_" x="163.4" y="121.1" class="st24" width="3.4" height="63.2"/>
				<rect id="XMLID_782_" x="166.7" y="121.1" class="st25" width="3.4" height="63.2"/>
				<rect id="XMLID_784_" x="170.1" y="121.1" class="st25" width="3.4" height="63.2"/>
				<rect id="XMLID_785_" x="173.5" y="121.1" class="st26" width="3.4" height="63.2"/>
				<rect id="XMLID_786_" x="176.8" y="121.1" class="st27" width="3.4" height="63.2"/>
				<rect id="XMLID_788_" x="180.2" y="121.1" class="st27" width="3.4" height="63.2"/>
				<rect id="XMLID_789_" x="183.6" y="121.1" class="st27" width="3.4" height="63.2"/>
				<rect id="XMLID_790_" x="186.9" y="121.1" class="st27" width="3.4" height="63.2"/>
				<rect id="XMLID_792_" x="190.3" y="121.1" class="st27" width="3.4" height="63.2"/>
				<rect id="XMLID_793_" x="193.7" y="121.1" class="st27" width="0.1" height="63.2"/>
			</g>
		</g>
		<g id="XMLID_188_">
			<path id="XMLID_725_" class="st4" d="M183.9,184.4H98.8l0-0.2l9.9-60.6c0.2-1.3,1.4-2.3,2.7-2.3l80.1-0.4l1.3,0.8
				c0.7,0.4,1.1,1.2,1,2.1L183.9,184.4z M99.3,184h84.3l9.9-60.4c0.1-0.7-0.2-1.3-0.8-1.6l-1.2-0.7l-80,0.4c-1.1,0-2.1,0.9-2.3,2
				L99.3,184z"/>
		</g>
		<g id="XMLID_189_">
			<path id="XMLID_1121_" class="st3" d="M182.7,183.7H98l9.9-60.6c0.2-1.2,1.3-2.1,2.5-2.1h80.4c1.2,0,2,0.9,1.8,2.1L182.7,183.7z"
				/>
		</g>
		<g id="XMLID_190_">
			<path id="XMLID_724_" class="st4" d="M98,183.9C98,183.9,98,183.8,98,183.9c-0.1,0-0.2-0.1-0.2-0.2l9.9-60.6
				c0.2-1.3,1.4-2.3,2.7-2.3h80.4c0.6,0,1.2,0.2,1.5,0.7c0.4,0.4,0.5,1,0.4,1.7l-9.1,55.7c0,0.1-0.1,0.2-0.2,0.2
				c-0.1,0-0.2-0.1-0.2-0.2l9.1-55.7c0.1-0.5,0-1-0.3-1.3c-0.3-0.3-0.7-0.5-1.2-0.5h-80.4c-1.1,0-2.1,0.9-2.3,2l-9.9,60.6
				C98.2,183.8,98.1,183.9,98,183.9z"/>
		</g>
		<g id="XMLID_191_">
			<polygon id="XMLID_1120_" class="st28" points="102,180.2 111.1,124.4 188.9,124.4 179.8,180.2 			"/>
		</g>
		<g id="XMLID_192_">
			<path id="XMLID_1119_" class="st2" d="M181.1,187.3H65.2c-1.9,0-3.4-1.5-3.4-3.4l0,0c0-1.9,1.5-3.4,3.4-3.4h115.8
				c1.9,0,3.4,1.5,3.4,3.4l0,0C184.5,185.8,182.9,187.3,181.1,187.3z"/>
		</g>
		<g id="XMLID_193_">
			<path id="XMLID_194_" class="st29" d="M181.1,184.9H65.2c-1.5,0-2.7-0.9-3.2-2.2c-0.1,0.4-0.2,0.8-0.2,1.2c0,1.9,1.5,3.4,3.4,3.4
				h115.8c1.9,0,3.4-1.5,3.4-3.4c0-0.4-0.1-0.8-0.2-1.2C183.8,184,182.5,184.9,181.1,184.9z"/>
		</g>
		<g id="XMLID_204_">
			<path id="XMLID_215_" class="st28" d="M98,182.7h-7.7c-1.5,0-2.9-0.9-3.5-2.2l0,0h14.8l0,0C100.9,181.9,99.5,182.7,98,182.7z"/>
		</g>
		<g id="XMLID_217_">
			<path id="XMLID_721_" class="st4" d="M181.1,187.5H65.2c-2,0-3.6-1.6-3.6-3.6s1.6-3.6,3.6-3.6h115.8c2,0,3.6,1.6,3.6,3.6
				S183.1,187.5,181.1,187.5z M65.2,180.7c-1.8,0-3.2,1.4-3.2,3.2c0,1.8,1.4,3.2,3.2,3.2h115.8c1.8,0,3.2-1.4,3.2-3.2
				c0-1.8-1.4-3.2-3.2-3.2H65.2z"/>
		</g>
		<g id="XMLID_219_">
			<path id="XMLID_1118_" class="st2" d="M181.1,187.3h-60.4c-1.9,0-3.4-1.5-3.4-3.4l0,0c0-1.9,1.5-3.4,3.4-3.4h60.4
				c1.9,0,3.4,1.5,3.4,3.4l0,0C184.5,185.8,182.9,187.3,181.1,187.3z"/>
		</g>
		<g id="XMLID_224_">
			<path id="XMLID_699_" class="st4" d="M181.1,187.5h-60.4c-2,0-3.6-1.6-3.6-3.6s1.6-3.6,3.6-3.6h60.4c2,0,3.6,1.6,3.6,3.6
				S183.1,187.5,181.1,187.5z M120.7,180.7c-1.8,0-3.2,1.4-3.2,3.2c0,1.8,1.4,3.2,3.2,3.2h60.4c1.8,0,3.2-1.4,3.2-3.2
				c0-1.8-1.4-3.2-3.2-3.2H120.7z"/>
		</g>
		<g id="XMLID_233_">
			<rect id="XMLID_1116_" x="173.1" y="183.2" class="st4" width="5.3" height="1.5"/>
		</g>
		<g id="XMLID_240_">
			<rect id="XMLID_1114_" x="166.8" y="183.2" class="st4" width="5.3" height="1.5"/>
		</g>
	</g>
	<g id="XMLID_665_">
		<path id="XMLID_697_" class="st4" d="M221.5,187.5H35.7c-0.1,0-0.2-0.1-0.2-0.2c0-0.1,0.1-0.2,0.2-0.2h185.8
			c0.1,0,0.2,0.1,0.2,0.2C221.7,187.5,221.6,187.5,221.5,187.5z"/>
	</g>
	<g id="XMLID_843_">
		<g id="XMLID_801_">
			<path id="XMLID_1113_" class="st2" d="M108.9,180.2l13.9-83.9c0.3-1.9,2.1-3.4,4-3.4h55.4c1.9,0,3.2,1.5,2.9,3.4l-13.4,83.9
				H108.9z"/>
		</g>
		<g id="XMLID_821_">
			<g id="XMLID_799_">
				<path id="XMLID_1110_" class="st30" d="M175.3,115h-27c-0.1,0-0.1-0.1-0.1-0.1l0.3-1.8c0-0.1,0.1-0.1,0.2-0.1h27
					c0.1,0,0.1,0.1,0.1,0.1l-0.3,1.8C175.5,115,175.4,115,175.3,115z"/>
			</g>
			<g id="XMLID_705_">
				<path id="XMLID_1109_" class="st30" d="M174.8,118.5h-27c-0.1,0-0.1-0.1-0.1-0.1l0.3-1.8c0-0.1,0.1-0.1,0.2-0.1h27
					c0.1,0,0.1,0.1,0.1,0.1l-0.3,1.8C174.9,118.4,174.8,118.5,174.8,118.5z"/>
			</g>
			<g id="XMLID_812_">
				<path id="XMLID_1107_" class="st30" d="M174.2,121.9h-27c-0.1,0-0.1-0.1-0.1-0.1l0.3-1.8c0-0.1,0.1-0.1,0.2-0.1h27
					c0.1,0,0.1,0.1,0.1,0.1l-0.3,1.8C174.4,121.8,174.3,121.9,174.2,121.9z"/>
			</g>
			<g id="XMLID_819_">
				<path id="XMLID_1106_" class="st30" d="M173.6,125.3h-27c-0.1,0-0.1-0.1-0.1-0.1l0.3-1.8c0-0.1,0.1-0.1,0.2-0.1h27
					c0.1,0,0.1,0.1,0.1,0.1l-0.3,1.8C173.8,125.3,173.7,125.3,173.6,125.3z"/>
			</g>
		</g>
		<g id="XMLID_842_">
			<g id="XMLID_849_">
				<path id="XMLID_1105_" class="st30" d="M168.4,161h-52.7c-0.1,0-0.1-0.1-0.1-0.1l0.3-1.8c0-0.1,0.1-0.1,0.2-0.1h52.7
					c0.1,0,0.1,0.1,0.1,0.1l-0.3,1.8C168.6,160.9,168.5,161,168.4,161z"/>
			</g>
			<g id="XMLID_845_">
				<path id="XMLID_1102_" class="st30" d="M167.8,164.4h-52.7c-0.1,0-0.1-0.1-0.1-0.1l0.3-1.8c0-0.1,0.1-0.1,0.2-0.1h52.7
					c0.1,0,0.1,0.1,0.1,0.1l-0.3,1.8C168,164.3,167.9,164.4,167.8,164.4z"/>
			</g>
			<g id="XMLID_844_">
				<path id="XMLID_1099_" class="st30" d="M167.3,167.9h-52.7c-0.1,0-0.1-0.1-0.1-0.1l0.3-1.8c0-0.1,0.1-0.1,0.2-0.1h52.7
					c0.1,0,0.1,0.1,0.1,0.1l-0.3,1.8C167.4,167.8,167.4,167.9,167.3,167.9z"/>
			</g>
			<g id="XMLID_841_">
				<path id="XMLID_1098_" class="st30" d="M166.7,171.3H114c-0.1,0-0.1-0.1-0.1-0.1l0.3-1.8c0-0.1,0.1-0.1,0.2-0.1H167
					c0.1,0,0.1,0.1,0.1,0.1l-0.3,1.8C166.9,171.2,166.8,171.3,166.7,171.3z"/>
			</g>
			<g id="XMLID_851_">
				<path id="XMLID_1097_" class="st30" d="M166.1,174.7h-52.7c-0.1,0-0.1-0.1-0.1-0.1l0.3-1.8c0-0.1,0.1-0.1,0.2-0.1h52.7
					c0.1,0,0.1,0.1,0.1,0.1l-0.3,1.8C166.3,174.7,166.2,174.7,166.1,174.7z"/>
			</g>
		</g>
		<g id="XMLID_828_">
			<g id="XMLID_833_">
				<path id="XMLID_1096_" class="st30" d="M147.7,133.7h-11.6c-0.1,0-0.1-0.1-0.1-0.1l0.3-1.8c0-0.1,0.1-0.1,0.2-0.1H148
					c0.1,0,0.1,0.1,0.1,0.1l-0.3,1.8C147.8,133.6,147.8,133.7,147.7,133.7z"/>
			</g>
			<g id="XMLID_832_">
				<path id="XMLID_1095_" class="st30" d="M172.8,137.1h-37.3c-0.1,0-0.1-0.1-0.1-0.1l0.3-1.8c0-0.1,0.1-0.1,0.2-0.1h37.3
					c0.1,0,0.1,0.1,0.1,0.1L173,137C173,137.1,172.9,137.1,172.8,137.1z"/>
			</g>
		</g>
		<g id="XMLID_827_">
			<g id="XMLID_831_">
				<path id="XMLID_1094_" class="st30" d="M145.9,141.6h-11.6c-0.1,0-0.1-0.1-0.1-0.1l0.3-1.8c0-0.1,0.1-0.1,0.2-0.1h11.6
					c0.1,0,0.1,0.1,0.1,0.1l-0.3,1.8C146,141.5,146,141.6,145.9,141.6z"/>
			</g>
			<g id="XMLID_829_">
				<path id="XMLID_1093_" class="st30" d="M171,145h-37.3c-0.1,0-0.1-0.1-0.1-0.1l0.3-1.8c0-0.1,0.1-0.1,0.2-0.1h37.3
					c0.1,0,0.1,0.1,0.1,0.1l-0.3,1.8C171.2,144.9,171.1,145,171,145z"/>
			</g>
		</g>
		<g id="XMLID_835_">
			<g id="XMLID_840_">
				<path id="XMLID_1092_" class="st30" d="M144.1,149.5h-11.6c-0.1,0-0.1-0.1-0.1-0.1l0.3-1.8c0-0.1,0.1-0.1,0.2-0.1h11.6
					c0.1,0,0.1,0.1,0.1,0.1l-0.3,1.8C144.2,149.4,144.2,149.5,144.1,149.5z"/>
			</g>
			<g id="XMLID_838_">
				<path id="XMLID_1091_" class="st30" d="M169.2,152.9h-37.3c-0.1,0-0.1-0.1-0.1-0.1l0.3-1.8c0-0.1,0.1-0.1,0.2-0.1h37.3
					c0.1,0,0.1,0.1,0.1,0.1l-0.3,1.8C169.4,152.8,169.3,152.9,169.2,152.9z"/>
			</g>
		</g>
		<g id="XMLID_791_">
			<path id="XMLID_1090_" class="st31" d="M127.1,135.7h-4.2c-0.1,0-0.2-0.1-0.2-0.3l0.6-3.6c0-0.1,0.2-0.3,0.3-0.3h4.2
				c0.1,0,0.2,0.1,0.2,0.3l-0.6,3.6C127.3,135.6,127.2,135.7,127.1,135.7z"/>
		</g>
		<g id="XMLID_823_">
			<path id="XMLID_1085_" class="st32" d="M125.8,143.6h-4.2c-0.1,0-0.2-0.1-0.2-0.3l0.6-3.6c0-0.1,0.2-0.3,0.3-0.3h4.2
				c0.1,0,0.2,0.1,0.2,0.3l-0.6,3.6C126.1,143.5,125.9,143.6,125.8,143.6z"/>
		</g>
		<g id="XMLID_824_">
			<path id="XMLID_1084_" class="st33" d="M124.5,151.5h-4.2c-0.1,0-0.2-0.1-0.2-0.3l0.6-3.6c0-0.1,0.2-0.3,0.3-0.3h4.2
				c0.1,0,0.2,0.1,0.2,0.3l-0.6,3.6C124.8,151.4,124.6,151.5,124.5,151.5z"/>
		</g>
		<g id="XMLID_698_">
			<path id="XMLID_245_" class="st4" d="M183.8,104l1.2-7.7c0.3-1.9-1-3.4-2.9-3.4h-55.4c-1.9,0-3.7,1.5-4,3.4l-1.2,7.7H183.8z"/>
		</g>
		<g id="XMLID_691_">
			<path id="XMLID_1083_" class="st34" d="M130.4,98.4c-0.1,0.5-0.6,0.9-1.1,0.9c-0.5,0-0.9-0.4-0.8-0.9c0.1-0.5,0.6-0.9,1.1-0.9
				C130.1,97.5,130.5,97.9,130.4,98.4z"/>
		</g>
		<g id="XMLID_684_">
			<path id="XMLID_1082_" class="st2" d="M134.5,98.4c-0.1,0.5-0.6,0.9-1.1,0.9c-0.5,0-0.9-0.4-0.8-0.9c0.1-0.5,0.6-0.9,1.1-0.9
				C134.3,97.5,134.6,97.9,134.5,98.4z"/>
		</g>
		<g id="XMLID_681_">
			<path id="XMLID_1081_" class="st34" d="M134.5,98.4c-0.1,0.5-0.6,0.9-1.1,0.9c-0.5,0-0.9-0.4-0.8-0.9c0.1-0.5,0.6-0.9,1.1-0.9
				C134.3,97.5,134.6,97.9,134.5,98.4z"/>
		</g>
		<g id="XMLID_675_">
			<path id="XMLID_1080_" class="st34" d="M138.7,98.4c-0.1,0.5-0.6,0.9-1.1,0.9c-0.5,0-0.9-0.4-0.8-0.9c0.1-0.5,0.6-0.9,1.1-0.9
				C138.4,97.5,138.7,97.9,138.7,98.4z"/>
		</g>
		<g id="XMLID_673_">
			<g id="XMLID_729_">
				<path id="XMLID_1079_" class="st35" d="M145,119.1c-0.9,5.8-6.2,10.4-12,10.4c-5.8,0-9.7-4.7-8.9-10.4c0.9-5.8,6.2-10.4,12-10.4
					C141.8,108.7,145.8,113.4,145,119.1z"/>
			</g>
			<g id="XMLID_1534_">
				<g id="XMLID_1536_">
					<path id="XMLID_1078_" class="st2" d="M138.9,121.3l-2.9-1l0.1-0.7l-1.1,0.6h-0.7l-0.9-0.6l-0.1,0.7l-3.2,1
						c-0.2,0.1-0.4,0.3-0.5,0.5l-0.4,2.5h9.6l0.4-2.5C139.3,121.6,139.2,121.4,138.9,121.3z"/>
				</g>
				<g id="XMLID_1535_">
					<path id="XMLID_1077_" class="st2" d="M135.9,112.7c-1.3,0-2.5,1-2.7,2.3l-0.2,2.8c0,0.4,0.1,0.7,0.4,0.9l0.1,0.1l0.9,0.6h0.7
						l1.1-0.6l0.2-0.1c0.4-0.2,0.6-0.5,0.7-0.9l0.7-2.8C138.1,113.7,137.2,112.7,135.9,112.7z"/>
				</g>
			</g>
		</g>
	</g>
	<g id="XMLID_660_">
		<g id="XMLID_783_">
			<polygon id="XMLID_1076_" class="st2" points="62,179.4 94.8,179.4 94.8,131.4 81.2,117.2 62,121 			"/>
		</g>
		<g id="XMLID_663_">
			<polygon id="XMLID_1075_" class="st4" points="59.5,170.8 59.8,187.7 93.7,187.7 94.8,170.8 			"/>
		</g>
		<g id="XMLID_664_" class="st36">
			<g id="XMLID_246_">
				<path id="XMLID_250_" class="st37" d="M84.7,185.8c0.1,0.6,0.2,1.3,0.4,1.9h8.6l1-15.2l-3.6-1.6h-5.2
					C83.9,175.4,83.9,180.8,84.7,185.8z"/>
			</g>
		</g>
		<g id="XMLID_667_" class="st36">
			<g id="XMLID_251_">
				<path id="XMLID_252_" class="st37" d="M70.5,187.7c0.4-1.9,0.6-3.7,0.6-5.6c0-3.9-1-7.8-2.8-11.2h-8.7l0.3,16.8H70.5z"/>
			</g>
		</g>
		<g id="XMLID_661_">
			<polygon id="XMLID_1074_" class="st2" points="54.5,187.4 53.6,186.8 53.4,185.3 48.6,185.3 48.6,187.4 			"/>
		</g>
		<g id="XMLID_676_">
			<path id="XMLID_654_" class="st4" d="M55.2,187.6h-6.8v-2.5h5.2l0.2,1.6L55.2,187.6z M48.8,187.2h5l-0.4-0.2l-0.2-1.5h-4.5V187.2
				z"/>
		</g>
		<g id="XMLID_777_">
			<rect id="XMLID_1073_" x="61.9" y="170.8" class="st1" width="32.9" height="2.9"/>
		</g>
		<g id="XMLID_776_">
			<rect id="XMLID_1320_" x="75.3" y="170.8" class="st35" width="8.5" height="2.9"/>
		</g>
		<g id="XMLID_774_">
			<polygon id="XMLID_1054_" class="st2" points="69.6,119.8 75.4,124.1 81.2,119.8 81.2,110 69.6,110 			"/>
		</g>
		<g id="XMLID_674_">
			<path id="XMLID_653_" class="st4" d="M81.2,120c-0.1,0-0.2-0.1-0.2-0.2v-9.6H69.8v9.6c0,0.1-0.1,0.2-0.2,0.2
				c-0.1,0-0.2-0.1-0.2-0.2v-10h12.1v10C81.4,119.9,81.4,120,81.2,120z"/>
		</g>
		<g id="XMLID_867_">
			<g id="XMLID_773_">
				<path id="XMLID_255_" class="st38" d="M83.3,110C83.4,110,83.4,109.9,83.3,110c0.1-0.1,0.1-0.1,0.1-0.1L83.3,110z"/>
			</g>
			<g id="XMLID_772_">
				<path id="XMLID_256_" class="st38" d="M66.9,99.1c0-2,0.3-4,1-6c0.2-0.5,0.4-1,0.7-1.4c0.4-0.4,0.9-0.7,1.4-0.6
					c0.3,0.1,0.7,0.3,1,0.1c0.2-0.1,0.2-0.3,0.3-0.4c1.1-1.8,4.8-0.9,6.5-1c1,0,2,0,2.9,0.3c0.7,0.3,1.3,0.7,1.9,1.2c2.1,2,3,5,3,8
					c0,2.2-0.5,4.3-1,6.4c-0.4,1.5-0.5,3.8-2,4.7c-1,0.7-2.3,1.2-3.6,1.5c-1.2,0.3-2.5,0.2-3.8,0.1c-1.6-0.1-3.4-0.2-4.5-1.4
					c-0.4-0.5-0.7-1-1-1.6c-0.4-0.7-0.8-1.5-1.1-2.2c-0.3-0.6-0.6-1.2-0.8-1.8C67.2,103.1,66.9,101.1,66.9,99.1z"/>
			</g>
		</g>
		<g id="XMLID_771_">
			<path id="XMLID_1043_" class="st2" d="M68.4,102.6c0,0-1.7-1-1.7-0.1c0,0.5-0.2,1.4,0.1,2.6c0.3,1,1,1.8,2,2.1l0,0l1.1-2.8
				L68.4,102.6z"/>
		</g>
		<g id="XMLID_669_">
			<path id="XMLID_640_" class="st4" d="M68.9,107.5l-0.2-0.1c-1-0.4-1.8-1.2-2.1-2.2c-0.3-0.9-0.2-1.7-0.1-2.2c0-0.2,0-0.3,0-0.4
				c0-0.3,0.1-0.4,0.3-0.5c0.5-0.3,1.6,0.3,1.8,0.4l0,0l1.5,1.9L68.9,107.5z M67.1,102.3c-0.1,0-0.1,0-0.1,0c0,0-0.1,0-0.1,0.2
				c0,0.1,0,0.3,0,0.5c0,0.5-0.1,1.2,0.1,2.1c0.2,0.9,0.8,1.5,1.7,1.9l1-2.5l-1.3-1.7C67.9,102.5,67.4,102.3,67.1,102.3z"/>
		</g>
		<g id="XMLID_769_" class="st39">
			<path id="XMLID_604_" class="st40" d="M81.2,116.6c-0.6,0.3-1.3,0.5-2.1,0.5h-1.3c-1.5,0-2.9-0.5-4.1-1.4l-1.1-0.8
				c-1.6-1.2-2.6-2.8-3-4.7V110h11.7V116.6z"/>
		</g>
		<g id="XMLID_762_">
			<path id="XMLID_1041_" class="st2" d="M84.6,101.8l-0.3,5.9c-0.1,2.2-1,4.4-2.4,6.1l0,0c-0.8,1-2.1,1.5-3.3,1.5h-1.3
				c-1.5,0-2.9-0.5-4.1-1.4l-1.1-0.8c-1.9-1.4-3-3.5-3.2-5.8l-0.4-5.2c-0.2-2.8,1-5.6,3.3-7.2c1.5-1,3.3-1.8,5.5-1.7
				C81.6,93.5,84.8,97.4,84.6,101.8z"/>
		</g>
		<g id="XMLID_672_">
			<path id="XMLID_638_" class="st4" d="M78.5,115.5h-1.3c-1.5,0-3-0.5-4.3-1.4l-1.1-0.8c-1.9-1.4-3.1-3.6-3.3-6
				c0-0.1,0.1-0.2,0.2-0.2c0.1,0,0.2,0.1,0.2,0.2c0.2,2.3,1.3,4.3,3.1,5.7l1.1,0.8c1.2,0.9,2.6,1.3,4,1.3h1.3c1.2,0,2.4-0.5,3.2-1.5
				c1.4-1.7,2.3-3.8,2.4-6l0.3-5.9c0.2-4.3-3-8.1-7.2-8.4c-1.9-0.1-3.7,0.4-5.4,1.6c-0.1,0.1-0.2,0-0.3,0c-0.1-0.1,0-0.2,0-0.3
				c1.8-1.3,3.7-1.9,5.7-1.7c4.4,0.3,7.8,4.3,7.6,8.8l-0.3,5.9c-0.1,2.3-1,4.5-2.5,6.2C81.2,114.9,79.9,115.5,78.5,115.5z"/>
		</g>
		<g id="XMLID_759_">
			<path id="XMLID_1040_" class="st4" d="M81.2,117.2l5.8,4l5.4,0.9c1,0.2,1.9,0.7,2.6,1.4l14.8,15.9c1.1,1.2,2.9,1.5,4.4,0.7
				l12.9-7l3.3,5.8L115,150.8c-1.7,1.4-4.1,1.5-6,0.4l-9.2-7.3l-2.2,10.8l5.2,28.6l-10.9-6.9c-3.7-2.4-5.4-6.9-4.1-11.2
				c3-10.2,4.4-27-6.6-45.4V117.2z"/>
		</g>
		<g id="XMLID_758_">
			<path id="XMLID_1039_" class="st2" d="M130,138.3l2.4-1.8h9l5.1-1.1l2.3-2.3l0,0c-0.6-0.8-1.7-1-2.4-0.4l-1.4,1l-6.6,0.5
				c-0.8,0.1-1.5-0.3-1.9-1l-0.1-0.2l2.4-2c1-0.8,1-2.4-0.1-3.2l0,0l-8.7,4.9l-2.3,1.6L130,138.3z"/>
		</g>
		<g id="XMLID_658_">
			<path id="XMLID_605_" class="st4" d="M130,138.6l-2.5-4.4l2.4-1.7l8.8-4.9l0.1,0.1c0.6,0.4,0.9,1,0.9,1.7c0,0.7-0.3,1.3-0.8,1.8
				l-2.3,1.9l0,0c0.4,0.6,1,0.9,1.7,0.9l6.5-0.5l1.4-1c0.4-0.3,0.9-0.4,1.5-0.3c0.5,0.1,1,0.4,1.3,0.8l0.1,0.1l-2.5,2.5l-5.2,1.1
				h-8.9L130,138.6z M128,134.3l2.1,3.6l2.2-1.7h9l5-1.1l2.2-2.2c-0.2-0.3-0.6-0.4-0.9-0.5c-0.4-0.1-0.8,0-1.2,0.3l-1.5,1.1
				l-6.6,0.5c-0.8,0.1-1.7-0.4-2.1-1.1l-0.2-0.3l2.6-2.1c0.4-0.4,0.7-0.9,0.7-1.5c0-0.5-0.3-1-0.7-1.3l-8.6,4.8L128,134.3z"/>
		</g>
		<g id="XMLID_749_">
			<path id="XMLID_1037_" class="st4" d="M69.6,114.6l-4.9,5.3l-14.3,5l7.9,27.4l-8.8,29.8l9.9-2.3c7-1.6,12-7.8,12.1-14.9
				C71.7,154.9,71.5,138.6,69.6,114.6z"/>
		</g>
		<g id="XMLID_746_">
			<polygon id="XMLID_1036_" class="st35" points="75.4,124.1 79.9,128.7 82.8,122.5 81.2,119.8 			"/>
		</g>
		<g id="XMLID_745_">
			<polygon id="XMLID_1034_" class="st35" points="75.4,124.1 73.2,128.7 70.4,126.4 70,120.1 			"/>
		</g>
		<g id="XMLID_744_">
			<polygon id="XMLID_1032_" class="st38" points="75.4,124.1 79.1,127.8 73.6,127.8 			"/>
		</g>
		<g id="XMLID_743_">
			<path id="XMLID_1031_" class="st38" d="M78.1,127.8c0,0,7.4,21.8,5.9,35.5l-4.8,4.7l-4.5-5c0,0,6.2-17.2,0.2-35.2H78.1z"/>
		</g>
		<g id="XMLID_825_" class="st41">
			<g id="XMLID_742_" class="st42">
				<g id="XMLID_257_">
					<path id="XMLID_258_" class="st37" d="M56.8,146.7c1.2,1.3,1.7,3.2,1.3,5l-1.4-4.8C56.7,146.8,56.7,146.7,56.8,146.7z"/>
				</g>
			</g>
			<g id="XMLID_736_" class="st42">
				<g id="XMLID_259_">
					<path id="XMLID_260_" class="st37" d="M56.9,158.3c-0.5,1.3-0.6,2.7-0.9,4.1c-0.3,1.2-0.8,2.3-1.6,3.2l3.9-13.3l-0.1-0.4
						c1.9,0.5,3.9,0.9,5.8,0.9c-2,0.2-4.1,0.8-5.9,1.8c0.5,0.1,0.9,0.2,1.4,0.3C58.3,155.8,57.4,157,56.9,158.3z"/>
				</g>
			</g>
		</g>
		<g id="XMLID_806_" class="st41">
			<g id="XMLID_735_" class="st42">
				<g id="XMLID_261_">
					<path id="XMLID_262_" class="st37" d="M96.7,152c0.9-0.6,1.5-1.5,1.9-2.5l-1.1,5.2l0.1,0.3c-1.1-0.2-2.2-0.3-3.3-0.5
						c-0.2-0.6,0.2-1.2,0.8-1.6C95.6,152.5,96.2,152.4,96.7,152z"/>
				</g>
			</g>
			<g id="XMLID_734_" class="st42">
				<g id="XMLID_264_">
					<path id="XMLID_265_" class="st37" d="M97.9,158.7c0.2-0.1,0.3-0.4,0.3-0.6l1,5.7c-0.6-1.9-1.4-3.7-2.3-5.4
						C97.1,158.7,97.6,158.9,97.9,158.7z"/>
				</g>
			</g>
			<g id="XMLID_728_" class="st42">
				<g id="XMLID_266_">
					<path id="XMLID_267_" class="st37" d="M98,157.7c-0.1-0.1-0.3-0.2-0.5-0.3c-0.9-0.4-1.8-0.7-2.6-1.1c0.8-0.6,1.7-1,2.7-1.3
						l0.5,2.9C98.1,157.8,98.1,157.7,98,157.7z"/>
				</g>
			</g>
		</g>
		<g id="XMLID_719_">
			<path id="XMLID_1030_" class="st3" d="M71.5,164.8c0,0.3,0,0.7-0.1,1l-0.1,0.8c0,0.1,0,0.1,0,0.2l-7.3-39l2.7-3.7l-3.8-2.2
				l6.7-7.4C71.5,138.6,71.7,154.9,71.5,164.8z"/>
		</g>
		<g id="XMLID_714_">
			<path id="XMLID_1029_" class="st3" d="M90.4,125.4c0,0,7.2,13.8-2.6,39.8c3-10.2,4.4-27-6.6-45.4v-2.6l5.8,4l-2.4,1.4L90.4,125.4
				z"/>
		</g>
		<g id="XMLID_800_" class="st42">
			<g id="XMLID_657_" class="st42">
				<polygon id="XMLID_602_" class="st43" points="55,163.2 55.9,180.6 49.5,182.1 				"/>
			</g>
		</g>
		<g id="XMLID_656_">
			<polygon id="XMLID_1027_" class="st4" points="50.4,124.9 43.5,157.3 47.6,185.7 54.4,185.8 52.8,156.8 57.2,141 			"/>
		</g>
		<g id="XMLID_662_" class="st36">
			<g id="XMLID_655_">
				<path id="XMLID_268_" class="st37" d="M119.8,136.9c0.1,0.1,0.2,0.1,0.2,0.2c-0.6,0.2-1.2,0.4-1.7,0.6L119.8,136.9z"/>
			</g>
			<g id="XMLID_652_">
				<path id="XMLID_269_" class="st37" d="M109.8,139.3c1.1,1.2,2.9,1.5,4.4,0.7l1.8-1c-0.1,0.1-0.2,0.1-0.3,0.2
					c-0.5,0.4-0.9,0.9-1.4,1.3c-1.1,1-2.5,1.7-3.8,2.3c0-0.5,0.1-1.1,0.3-1.6c-0.3,0.9-0.8,1.7-1.3,2.4c0-1.1-0.1-2.2-0.1-3.2
					c0,0.5-0.1,0.9-0.1,1.4c-0.8-2.2-1.8-4.4-3-6.5L109.8,139.3z"/>
			</g>
		</g>
		<g id="XMLID_243_" class="st36">
			<path id="XMLID_599_" class="st37" d="M51.3,156.9c-0.5-0.3-1.7-0.8-1-0.9c0.2,0,1.8,0.3,2,0.3c-0.3-0.3-1.8-1.3-1.3-1.6
				c1-0.7,2.1-1.4,3.1-2.1l-0.6,2.2c-0.1,0-0.1,0.1-0.2,0.1c0,0,0.1,0,0.1,0.1l-0.5,1.8l0,0c-0.1,0-0.1,0-0.2,0.1
				c0.1,0,0.1,0.1,0.2,0.2l0.1,1.6c-0.1,0-0.2,0-0.3,0c0,0,0.1,0.1,0.1,0.1c0.1,0.1,0.1,0.2,0.2,0.4l0.2,4.3c-0.3,0.1-0.6,0-0.8-0.4
				c-0.4-0.8-0.5-1.7-0.8-2.6c-0.4-1-1.2-1.2-2-1.9C49.2,158.3,50.7,157,51.3,156.9z"/>
		</g>
		<g id="XMLID_787_">
			<path id="XMLID_270_" class="st38" d="M82.1,92c-1.4-1-3-1.2-4.8-0.9c-2.1,0.3-3.9,0.7-5.8,1.7c-1.9,0.9-3.5,2.7-3.8,4.7
				c-0.2,1.3,0.1,2.5,0.3,3.8c0.4,1.7,0.8,3.3,1.2,4.9c0,0,0.6,0.6,0.6,0.6c-1-1-0.2-6.2,0.5-7.3c0.5-0.8,1.3-1.4,2.2-1.4
				c0.8,0,1.5,0.5,2.1,0.8c2.4,1.3,5.3,1.6,8,0.9c0.5-0.1,1-0.3,1.3-0.7c0.5-0.4,0.7-1,0.8-1.7c0.3-1.7-0.5-3.4-1.7-4.6
				C82.8,92.6,82.4,92.3,82.1,92z"/>
		</g>
	</g>
	<g id="XMLID_943_" class="st44">
		<path id="XMLID_592_" class="st4" d="M194.6,108.9h-30.1c-0.8,0-1.6,0.7-1.7,1.5l-4.3,27.1c-0.1,0.8,0.4,1.5,1.3,1.5h30.1
			L194.6,108.9z"/>
	</g>
	<g id="XMLID_1668_">
		<g id="XMLID_1530_">
			<path id="XMLID_1025_" class="st4" d="M199.6,137h-42.9c-0.8,0-1.4-0.7-1.3-1.5l4.3-27.1c0.1-0.8,0.9-1.5,1.7-1.5h42.9
				c0.8,0,1.4,0.7,1.3,1.5l-4.3,27.1C201.2,136.3,200.5,137,199.6,137z"/>
		</g>
		<g id="XMLID_1625_">
			<polygon id="XMLID_1024_" class="st2" points="199,134.7 158.1,134.7 162.1,109.1 203.1,109.1 			"/>
		</g>
		<g id="XMLID_1627_">
			<g id="XMLID_1628_">
				<path id="XMLID_272_" class="st4" d="M172.1,115.3c-0.1,1-0.9,2-2.3,2c-0.5,0-1.1,0-1.5,0l0.6-3.9c0.5,0,1.1,0,1.5,0
					C171.8,113.3,172.3,114.3,172.1,115.3z M169.1,116.5h0.8c0.9,0,1.3-0.7,1.4-1.3c0.1-0.6-0.2-1.2-1-1.2h-0.8L169.1,116.5z"/>
			</g>
			<g id="XMLID_1631_">
				<path id="XMLID_273_" class="st4" d="M172.4,117.3l0.6-3.9h0.7l-0.6,3.9H172.4z"/>
			</g>
			<g id="XMLID_1633_">
				<path id="XMLID_274_" class="st4" d="M175.8,116.1h-1.1l-0.2,1.2h-0.7l0.6-3.9c0.6,0,1.2,0,1.9,0
					C178.2,113.3,177.7,116.1,175.8,116.1z M174.8,115.4h1.1c0.9,0,1.2-1.4,0.2-1.4H175L174.8,115.4z"/>
			</g>
			<g id="XMLID_1636_">
				<path id="XMLID_275_" class="st4" d="M178.9,113.3l-0.5,3.2h2l-0.1,0.7h-2.8l0.6-3.9H178.9z"/>
			</g>
			<g id="XMLID_1638_">
				<path id="XMLID_276_" class="st4" d="M184.9,115.3c-0.2,1-1,2-2.3,2c-1.4,0-1.9-1-1.7-2c0.2-1,1-2.1,2.3-2.1
					C184.6,113.3,185.1,114.3,184.9,115.3z M181.6,115.3c-0.1,0.6,0.2,1.3,1.1,1.3c0.9,0,1.4-0.7,1.5-1.3c0.1-0.7-0.1-1.4-1.1-1.4
					C182.2,113.9,181.7,114.7,181.6,115.3z"/>
			</g>
			<g id="XMLID_1641_">
				<path id="XMLID_277_" class="st4" d="M189,114.4l-1.5,1.7h-0.1l-1-1.7l-0.4,2.9h-0.7l0.6-3.9h0.9l1,1.7l1.5-1.7h0.8l-0.6,3.9
					h-0.7L189,114.4z"/>
			</g>
			<g id="XMLID_1643_">
				<path id="XMLID_278_" class="st4" d="M192.9,116.5h-2.1l-0.5,0.7h-0.8l2.4-3.9h0.8l1.1,3.9h-0.8L192.9,116.5z M192.2,114.2
					l-1,1.7h1.5L192.2,114.2z"/>
			</g>
		</g>
		<g id="XMLID_1626_">
			<polygon id="XMLID_1021_" class="st35" points="198.5,120.6 162.9,120.6 163.1,119.6 198.6,119.6 			"/>
		</g>
		<g id="XMLID_1646_">
			<polygon id="XMLID_1020_" class="st35" points="198.1,123 162.6,123 162.7,121.9 198.3,121.9 			"/>
		</g>
		<g id="XMLID_1647_">
			<polygon id="XMLID_1019_" class="st35" points="197.7,125.3 162.2,125.3 162.4,124.2 197.9,124.2 			"/>
		</g>
		<g id="XMLID_1648_">
			<polygon id="XMLID_1014_" class="st35" points="193.5,127.6 165.7,127.6 165.9,126.5 193.7,126.5 			"/>
		</g>
		<g id="XMLID_1650_">
			<g id="XMLID_1665_">
				<path id="XMLID_279_" class="st4" d="M187,130.8c0.1,0,0.1-0.1,0.1-0.1c0,0,0,0,0.1,0c0.1,0,0.3,0,0.4,0.1c0,0,0.2,0.1,0.4,0.2
					c0.2-0.3,0.3-0.6,0.4-0.8c0.3-0.5,0.5-0.8,0.7-0.9c0.1,0,0.1-0.1,0.2-0.1c0.1-0.1,0.2-0.1,0.3-0.1c0.3,0,0.4,0.2,0.5,0.5
					c0,0,0,0,0,0c0,0,0,0,0,0c0,0,0,0,0,0c0-0.1-0.1-0.3-0.2-0.4c-0.1-0.1-0.2-0.2-0.3-0.2c-0.1,0-0.3,0.1-0.5,0.2
					c-0.2,0.2-0.4,0.5-0.7,0.9c-0.1,0.1-0.2,0.4-0.4,0.8c0.2,0.1,0.3,0.2,0.5,0.3c0.3,0.2,0.5,0.3,0.8,0.4c0.3,0.1,0.6,0.2,0.9,0.2
					c0.2,0,0.4,0,0.5-0.1c0.1-0.1,0.3-0.3,0.3-0.5c0,0,0-0.1,0-0.1c0,0,0,0,0,0.1c0,0.1-0.1,0.2-0.1,0.3c-0.1,0.1-0.1,0.2-0.2,0.2
					c0,0-0.1,0.1-0.2,0.1c-0.1,0-0.2,0-0.3,0c-0.5,0-1.2-0.3-2.2-0.8c0,0.1-0.1,0.2-0.2,0.2c-0.1,0.1-0.2,0.1-0.2,0.1
					c-0.2,0-0.3-0.1-0.5-0.2c-0.1-0.2-0.2-0.3-0.2-0.4C186.9,130.9,186.9,130.8,187,130.8z M187.9,131.1c-0.4-0.2-0.6-0.3-0.8-0.3
					c-0.1,0-0.1,0-0.1,0.1c0,0,0,0,0,0.1c0,0.1,0.1,0.3,0.2,0.4c0.1,0.1,0.2,0.1,0.3,0.2C187.7,131.5,187.8,131.4,187.9,131.1z"/>
			</g>
			<g id="XMLID_1663_">
				<path id="XMLID_280_" class="st4" d="M188.9,131.4c0,0,0,0,0-0.1c0,0,0-0.1,0-0.1c0,0,0.1-0.1,0.2-0.1c0,0,0,0,0,0
					c0,0,0,0.1,0,0.2C189,131.4,188.9,131.4,188.9,131.4z"/>
			</g>
			<g id="XMLID_1661_">
				<path id="XMLID_281_" class="st4" d="M190.2,131.3c-0.3,0.1-0.5,0.2-0.7,0.1c0,0-0.1-0.1-0.1-0.2c0,0,0,0,0,0
					c0,0.1,0,0.1,0.1,0.2C189.7,131.4,189.9,131.4,190.2,131.3c0.6-0.4,1.3-1.5,1.6-2.1c-0.5,0.1-1.1,0.3-1.4,0.6
					c-0.1,0.1-0.3,0.2-0.3,0.4c0,0.1,0,0.2,0,0.2c0,0,0,0,0,0c0,0,0-0.1,0-0.2c0-0.1,0.1-0.3,0.3-0.4c0.3-0.2,0.9-0.5,1.5-0.6
					c0,0,0.1,0,0.1,0c0,0,0.1,0,0.1,0.1C191.5,129.9,190.8,130.9,190.2,131.3z"/>
			</g>
			<g id="XMLID_1658_">
				<path id="XMLID_282_" class="st4" d="M190.7,131.7c0,0.1-0.1,0.2-0.1,0.2c-0.7,1.3-1.4,2-2,2.3c-0.2,0.1-0.3,0.1-0.5,0.1
					c-0.2,0-0.4-0.1-0.5-0.3c-0.1-0.2-0.2-0.4-0.1-0.7c0.1-0.4,0.3-0.7,0.7-1c0.4-0.3,0.9-0.5,1.4-0.7
					C189.9,131.7,190.3,131.6,190.7,131.7c0-0.2,0.1-0.3,0.2-0.4c0.1-0.2,0.2-0.3,0.3-0.5c0,0,0-0.1,0-0.1c0,0,0.1-0.1,0.2-0.1
					c0.1-0.2,0.1-0.1,0.3-0.4c0,0,0.1,0,0.1-0.1c0,0,0,0,0,0c0,0,0,0,0,0c-0.2,0.2-0.1,0.1-0.3,0.4c0.2-0.1,0.3-0.1,0.4-0.1
					c0.2,0,0.2,0.1,0.2,0.2c0,0.1-0.1,0.2-0.2,0.4c0.3-0.1,0.4-0.1,0.5-0.1c0,0,0,0,0,0c0,0,0,0,0,0c0,0,0,0,0,0
					c-0.2,0-0.3,0.1-0.6,0.2c-0.2,0.2-0.4,0.3-0.7,0.3c0,0-0.1,0-0.1-0.1c0,0,0,0,0,0c0.1,0,0.3-0.1,0.7-0.2
					c0.1-0.1,0.2-0.2,0.2-0.4c0-0.1,0-0.2-0.2-0.2c-0.1,0-0.2,0-0.4,0.1C191.3,130.8,191.1,131,190.7,131.7c0.1,0,0.2,0,0.2,0
					c0.1,0,0.2,0.1,0.2,0.2c0,0,0,0.1,0,0.1c0,0.1-0.1,0.1-0.2,0.2c0,0,0,0-0.1,0c0,0,0,0,0,0c0,0,0,0,0,0c0.1-0.1,0.2-0.2,0.2-0.3
					c0-0.1,0-0.1-0.1-0.1C190.8,131.7,190.8,131.7,190.7,131.7z M190.6,131.7c-0.3,0-0.6,0.1-1,0.2c-0.5,0.1-1,0.4-1.4,0.7
					c-0.4,0.3-0.7,0.7-0.7,1c0,0.2,0,0.4,0.2,0.6c0.1,0.2,0.3,0.2,0.5,0.2c0.1,0,0.3,0,0.4-0.1c0.3-0.1,0.5-0.4,0.8-0.7
					c0.2-0.3,0.5-0.6,0.7-1c0.1-0.2,0.3-0.4,0.4-0.6C190.5,131.8,190.5,131.8,190.6,131.7z"/>
			</g>
			<g id="XMLID_1655_">
				<path id="XMLID_283_" class="st4" d="M193.7,130.7L193.7,130.7c-0.3,0.1-0.6,0.2-1,0.4c0,0.1,0.1,0.1,0.1,0.1
					c0,0.1-0.1,0.1-0.2,0.2c-0.1,0.1-0.2,0.1-0.3,0.1c0,0,0,0-0.1,0c-0.1,0-0.1,0-0.1,0c0,0,0,0,0,0c0,0,0.2-0.2,0.5-0.3l-0.1-0.1
					c0-0.1-0.1-0.1,0-0.2c0-0.1,0.2-0.3,0.5-0.5c0.3-0.2,0.6-0.3,0.8-0.3c0,0,0,0,0,0c0,0,0,0,0,0c0,0-0.1,0.1-0.2,0.1
					c-0.1,0-0.2,0-0.2,0c0,0-0.1,0-0.1,0c-0.1,0-0.3,0.1-0.4,0.2c-0.2,0.1-0.3,0.3-0.3,0.4c0,0,0,0.1,0,0.2c0,0.1,0.1,0.1,0.1,0.1
					C193,130.9,193.4,130.8,193.7,130.7z M192.2,131.5c0,0,0.1,0,0.2,0c0.1,0,0.1-0.1,0.2-0.1c0,0,0,0,0,0c0,0,0-0.1-0.1-0.1
					c0,0-0.1,0.1-0.2,0.1C192.3,131.4,192.2,131.4,192.2,131.5C192.2,131.4,192.2,131.5,192.2,131.5z"/>
			</g>
			<g id="XMLID_1653_">
				<path id="XMLID_284_" class="st4" d="M194.2,131.2c0,0.2,0,0.1,0.1,0.1c0,0,0.3-0.2,0.4-0.2c0.1,0,0.1,0,0,0.1
					c-0.1,0-0.4,0.2-0.4,0.3C194.2,131.4,194.1,131.3,194.2,131.2c-0.1-0.1,0-0.3,0.1-0.4c0-0.1,0-0.1-0.1,0
					c-0.2,0.2-0.8,0.7-0.9,0.7c-0.1,0-0.2-0.1-0.2-0.2c0.1-0.3,0.6-0.9,0.7-1c0.1-0.1,0.2,0,0.1,0.1c-0.2,0.2-0.6,0.6-0.7,0.9
					c-0.1,0.2,0,0.2,0.1,0.2c0.4-0.2,0.9-0.7,1.2-0.9c0.1-0.1,0.1,0.1,0.1,0.1C194.5,130.6,194.3,131,194.2,131.2z"/>
			</g>
			<g id="XMLID_1651_">
				<path id="XMLID_286_" class="st4" d="M195.6,131.5C195.6,131.5,195.6,131.5,195.6,131.5C195.6,131.5,195.6,131.5,195.6,131.5
					c0.2-0.3,0.4-0.6,0.5-0.8c0,0,0-0.1,0-0.1c0,0,0-0.1,0-0.1c0,0,0,0-0.1,0c-0.4,0.3-0.6,0.4-0.7,0.6c0,0,0,0-0.1,0
					c-0.1,0-0.1,0-0.1,0.1c0,0-0.1,0,0-0.1c0.2-0.2,0.3-0.4,0.3-0.5c0,0,0,0,0-0.1c0,0,0-0.1,0-0.1c0,0,0,0,0,0c0,0-0.1,0.1-0.3,0.2
					c-0.1,0.1-0.3,0.2-0.4,0.3c-0.1,0.1-0.1,0.1-0.2,0.2c0,0,0,0-0.1,0c0,0-0.1,0-0.1,0c0,0,0,0,0,0c0,0,0,0,0,0c0,0,0,0,0-0.1
					c0.1-0.1,0.2-0.3,0.3-0.4c0.2-0.2,0.3-0.3,0.3-0.4c0,0,0.1,0,0.1,0c0,0,0,0,0,0c0,0-0.1,0.1-0.2,0.1c-0.1,0.1-0.2,0.2-0.3,0.3
					c0,0.1,0,0.1,0,0.1c0,0,0,0,0,0c0.1-0.1,0.3-0.2,0.5-0.4c0.1-0.1,0.2-0.1,0.3-0.1c0,0,0,0,0,0c0,0-0.1,0.2-0.2,0.3
					c0,0,0,0,0,0.1c0,0,0,0,0,0c0,0,0,0,0,0c0.3-0.3,0.6-0.4,0.8-0.5c0,0,0,0,0,0c0,0,0,0,0,0.1c0,0,0,0-0.1,0.1
					C196.2,130.8,195.9,131.2,195.6,131.5C195.6,131.5,195.6,131.5,195.6,131.5z"/>
			</g>
		</g>
		<g id="XMLID_1649_">
			<g id="XMLID_1729_">
				<g id="XMLID_1730_">
					<g id="XMLID_1731_">
						<polygon id="XMLID_1011_" class="st38" points="168.9,136.2 167.8,136.2 166.9,137 166,134 168.1,133.1 						"/>
					</g>
				</g>
			</g>
			<g id="XMLID_1726_">
				<g id="XMLID_1727_">
					<g id="XMLID_1728_">
						<polygon id="XMLID_971_" class="st45" points="167.8,136.2 167.1,133.5 166,134 166.9,137 						"/>
					</g>
				</g>
			</g>
			<g id="XMLID_1723_">
				<g id="XMLID_1724_">
					<g id="XMLID_1725_">
						<polygon id="XMLID_946_" class="st38" points="162.5,136.2 163.6,136.2 164.3,137 166,134 164.2,133.1 						"/>
					</g>
				</g>
			</g>
			<g id="XMLID_1720_">
				<g id="XMLID_1721_">
					<g id="XMLID_1722_">
						<polygon id="XMLID_720_" class="st45" points="163.6,136.2 165.1,133.5 166,134 164.3,137 						"/>
					</g>
				</g>
			</g>
			<g id="XMLID_1719_" class="st42">
				<path id="XMLID_591_" class="st4" d="M168.4,134.1l-0.3-1L166,134l0.3,1l0.6-0.4c0.1-0.1,0.2-0.1,0.3-0.1l0.7-0.1
					C168.1,134.3,168.2,134.2,168.4,134.1z"/>
			</g>
			<g id="XMLID_1718_" class="st42">
				<path id="XMLID_587_" class="st4" d="M164.2,133.1l-0.5,0.9c0.1,0.1,0.2,0.2,0.4,0.3l0.7,0.1c0.1,0,0.2,0.1,0.2,0.1l0.5,0.4
					l0.6-1L164.2,133.1z"/>
			</g>
			<g id="XMLID_1715_">
				<g id="XMLID_1716_">
					<g id="XMLID_1717_">
						<path id="XMLID_718_" class="st3" d="M169.5,131.9l-0.5,0.6c-0.1,0.1-0.1,0.2-0.1,0.3l-0.2,0.7c-0.1,0.3-0.3,0.5-0.6,0.5
							l-0.7,0.1c-0.1,0-0.2,0.1-0.3,0.1l-0.6,0.4c-0.3,0.2-0.6,0.2-0.8,0l-0.5-0.4c-0.1-0.1-0.2-0.1-0.2-0.1l-0.7-0.1
							c-0.3-0.1-0.5-0.3-0.5-0.5l0-0.7c0-0.1,0-0.2-0.1-0.3l-0.3-0.6c-0.1-0.2-0.1-0.5,0.1-0.8l0.5-0.6c0.1-0.1,0.1-0.2,0.1-0.3
							l0.2-0.7c0.1-0.3,0.3-0.5,0.6-0.5l0.7-0.1c0.1,0,0.2-0.1,0.3-0.1l0.6-0.4c0.3-0.2,0.6-0.2,0.8,0l0.5,0.4
							c0.1,0.1,0.2,0.1,0.2,0.1l0.7,0.1c0.3,0.1,0.5,0.3,0.5,0.5l0,0.7c0,0.1,0,0.2,0.1,0.3l0.3,0.6
							C169.7,131.4,169.7,131.7,169.5,131.9z"/>
					</g>
				</g>
			</g>
			<g id="XMLID_1712_">
				<g id="XMLID_1713_">
					<g id="XMLID_1714_">
						<path id="XMLID_716_" class="st46" d="M168.3,131.6c-0.2,1-1.1,1.8-2.1,1.8c-1,0-1.7-0.8-1.5-1.8c0.2-1,1.1-1.8,2.1-1.8
							C167.7,129.7,168.4,130.5,168.3,131.6z"/>
					</g>
				</g>
			</g>
		</g>
	</g>
	<g id="XMLID_869_" class="st44">
		<path id="XMLID_253_" class="st4" d="M183.1,93c-0.3-0.1-0.6-0.2-1-0.2h-4.9l-1.6,9.7c-0.2,1.5,0.9,2.8,2.4,2.8l5.5,0l0.2-1.4h0
			l1.2-7.7c0-0.2,0-0.5,0-0.7C185,94.4,184.3,93.4,183.1,93z"/>
	</g>
	<g id="XMLID_544_">
		<g id="XMLID_1208_">
			<path id="XMLID_696_" class="st2" d="M221.5,103.5l-45.4,0.1c-1.5,0-2.7-1.3-2.4-2.8l1.8-10.9c0.2-1.3,1.4-2.3,2.7-2.3l45.4-0.1
				c1.5,0,2.7,1.3,2.4,2.8l-1.8,10.9C224,102.5,222.9,103.5,221.5,103.5z"/>
		</g>
		<g id="XMLID_1240_">
			<g id="XMLID_1215_">
				<path id="XMLID_693_" class="st38" d="M202.6,92.9l-9.9,0c-0.2,0-0.4-0.2-0.3-0.4l0.3-1.5c0-0.2,0.2-0.3,0.4-0.3l9.9,0
					c0.2,0,0.4,0.2,0.3,0.4l-0.3,1.5C203,92.8,202.8,92.9,202.6,92.9z"/>
			</g>
			<g id="XMLID_1238_">
				<path id="XMLID_644_" class="st35" d="M218.8,96.4l-26.7,0c-0.2,0-0.4-0.2-0.3-0.4l0.3-1.5c0-0.2,0.2-0.3,0.4-0.3l26.7,0
					c0.2,0,0.4,0.2,0.3,0.4l-0.3,1.5C219.2,96.3,219,96.4,218.8,96.4z"/>
			</g>
			<g id="XMLID_1239_">
				<path id="XMLID_642_" class="st35" d="M206.3,100l-14.7,0c-0.2,0-0.4-0.2-0.3-0.4l0.3-1.5c0-0.2,0.2-0.3,0.4-0.3l14.7,0
					c0.2,0,0.4,0.2,0.3,0.4l-0.3,1.5C206.6,99.8,206.5,100,206.3,100z"/>
			</g>
		</g>
		<g id="XMLID_545_">
			<g id="XMLID_546_">
				<path id="XMLID_288_" class="st4" d="M184,92c0.4,0.4,0.6,1.1,0.4,2c-0.1,0.9-0.5,1.6-1.1,2c-0.6,0.4-1.4,0.6-2.5,0.6h-1l-0.3,2
					h-1.6l1.2-7.3h2.6C182.7,91.4,183.5,91.6,184,92z M182.3,94.9c0.2-0.2,0.4-0.5,0.4-1c0.1-0.4,0-0.7-0.2-0.9
					c-0.2-0.2-0.6-0.3-1.1-0.3h-0.9l-0.4,2.4h1.1C181.7,95.2,182.1,95.1,182.3,94.9z"/>
			</g>
			<g id="XMLID_641_">
				<path id="XMLID_289_" class="st4" d="M188.4,94.4c-0.5,0-0.8,0.2-1.1,0.5c-0.3,0.3-0.5,0.8-0.6,1.3l-0.4,2.4h-1.6l0.9-5.6h1.6
					l-0.1,0.7c0.2-0.2,0.5-0.4,0.8-0.6c0.3-0.2,0.6-0.2,1-0.2l-0.2,1.5H188.4z"/>
			</g>
		</g>
	</g>
</g>
</svg>
